<?xml version="1.0" encoding="utf-8"?>
<!-- Generator: Adobe Illustrator 21.0.2, SVG Export Plug-In . SVG Version: 6.00 Build 0)  -->
<svg version="1.1" id="Слой_1" xmlns="http://www.w3.org/2000/svg" xmlns:xlink="http://www.w3.org/1999/xlink" x="0px" y="0px"
	 viewBox="0 0 500 500" style="enable-background:new 0 0 500 500;" xml:space="preserve">
<style type="text/css">
	.st0{fill:#4B4640;}
	.st1{enable-background:new    ;}
	.st2{fill:#FDF9F2;}
	.st3{display:none;}
</style>
<rect y="-2" class="st0" width="502" height="502"/>
<g class="st1">
	<path class="st2" d="M57.7,143.6v104.7h130.6v16.1H57.7v108.2H39.8v-245h163.8v16.1H57.7z"/>
	<path class="st2" d="M446.3,266.8c9.2,10.5,13.8,24.2,13.8,41c0,20.8-7.6,36.8-22.8,48c-15.2,11.2-37.7,16.8-67.5,16.8H260.7v-245
		h102.2c26.6,0,47.3,5.4,62.1,16.3c14.8,10.8,22.2,26.3,22.2,46.4c0,14-3.7,25.8-11,35.3c-7.3,9.6-17.3,16.5-29.9,20.7
		C423.8,249.4,437.1,256.3,446.3,266.8z M278.5,142.9v97.6h83.7c21.5,0,38-4.1,49.5-12.4c11.6-8.3,17.3-20.5,17.3-36.6
		c0-15.9-5.8-27.9-17.3-36.2c-11.5-8.3-28.1-12.4-49.5-12.4H278.5z M423.9,344.7c12.3-8.3,18.4-21.1,18.4-38.3
		c0-17.3-6.1-30-18.4-38.1c-12.3-8.2-30.3-12.3-54.1-12.3h-91.4v101.1h91.4C393.7,357.1,411.7,353,423.9,344.7z"/>
</g>
<rect x="14.7" y="373.1" class="st3" width="99" height="127.7"/>
</svg>
