<?xml version="1.0" encoding="utf-8"?>
<!-- Generator: Adobe Illustrator 21.0.2, SVG Export Plug-In . SVG Version: 6.00 Build 0)  -->
<svg version="1.1" id="Слой_2" xmlns="http://www.w3.org/2000/svg" xmlns:xlink="http://www.w3.org/1999/xlink" x="0px" y="0px"
	 viewBox="0 0 183.8 115.3" style="enable-background:new 0 0 183.8 115.3;" xml:space="preserve">
<style type="text/css">
	.st0{fill:none;stroke:#FDF9F2;stroke-width:2;stroke-miterlimit:10;}
	.st1{fill:none;stroke:#FDF9F2;stroke-miterlimit:10;}
	.st2{fill:none;stroke:#FDF9F2;stroke-width:2;stroke-linecap:round;stroke-miterlimit:10;}
	.st3{fill:#FDF9F2;}
</style>
<circle class="st0" cx="57.3" cy="57.4" r="56"/>
<circle class="st1" cx="57.8" cy="63.1" r="4.9"/>
<polyline class="st2" points="31.3,43.8 50.2,57.8 50.6,58.2 53.2,60.1 "/>
<polyline class="st2" points="61.9,59.4 64.1,57.2 64.4,57 64.5,56.8 88.9,32.8 "/>
<line class="st2" x1="57.3" y1="9.6" x2="57.3" y2="1.3"/>
<line class="st2" x1="9.3" y1="57.4" x2="1.3" y2="57.4"/>
<line class="st2" x1="105.3" y1="57.4" x2="113.1" y2="57.4"/>
<path class="st2" d="M57.3,105.3c0,14.2,0,5.2,0,5.2"/>
<g>
	<path class="st3" d="M127.9,49.7l2.2-7h1.5l2.2,7l2.5-7h1.8l-3.4,9.8h-1.6l-2.1-6.7h-0.1l-2.1,6.7h-1.6l-3.4-9.8h1.8L127.9,49.7z"
		/>
	<path class="st3" d="M145.4,52.4H144v-1c-0.6,0.7-1.4,1.1-2.5,1.1c-0.8,0-1.4-0.2-1.9-0.7s-0.8-1-0.8-1.8s0.3-1.3,0.8-1.6
		c0.5-0.4,1.3-0.5,2.2-0.5h2v-0.3c0-1-0.6-1.5-1.7-1.5c-0.7,0-1.4,0.3-2.2,0.8l-0.7-1c0.9-0.7,1.9-1.1,3.1-1.1
		c0.9,0,1.6,0.2,2.1,0.7s0.8,1.1,0.8,2.1v4.8H145.4z M143.8,49.7v-0.6h-1.8c-1.1,0-1.7,0.4-1.7,1.1c0,0.4,0.1,0.6,0.4,0.8
		c0.3,0.2,0.7,0.3,1.2,0.3s0.9-0.1,1.3-0.4C143.6,50.4,143.8,50.2,143.8,49.7z"/>
	<path class="st3" d="M149.1,52.4h-1.6V42h1.6V52.4z"/>
	<path class="st3" d="M153.3,46.3v3.8c0,0.4,0.1,0.6,0.3,0.8c0.2,0.2,0.4,0.3,0.8,0.3s0.7-0.2,1-0.5l0.6,1.1
		c-0.6,0.5-1.2,0.7-1.8,0.7c-0.7,0-1.2-0.2-1.7-0.7s-0.7-1.1-0.7-1.9v-3.6h-0.9v-1.3h0.9v-2.3h1.6v2.3h2v1.3H153.3z"/>
	<path class="st3" d="M164.1,49.3h-5.8c0,0.5,0.3,1,0.7,1.3c0.5,0.3,1,0.5,1.6,0.5c0.9,0,1.6-0.3,2.1-0.9l0.9,1
		c-0.8,0.8-1.8,1.2-3.1,1.2c-1,0-1.9-0.3-2.7-1c-0.7-0.7-1.1-1.6-1.1-2.8c0-1.2,0.4-2.1,1.1-2.8c0.7-0.7,1.6-1,2.6-1
		s1.9,0.3,2.6,0.9c0.7,0.6,1.1,1.5,1.1,2.5L164.1,49.3L164.1,49.3z M158.4,48.2h4.3c0-0.6-0.2-1.1-0.6-1.4c-0.4-0.3-0.9-0.5-1.4-0.5
		s-1.1,0.2-1.5,0.5C158.6,47.1,158.4,47.6,158.4,48.2z"/>
	<path class="st3" d="M169.8,46.4c-0.8,0-1.4,0.3-1.8,0.8s-0.6,1.2-0.6,2v3.2h-1.6V45h1.6v1.5c0.3-0.5,0.6-0.8,1-1.1
		c0.4-0.3,0.9-0.5,1.4-0.5L169.8,46.4C169.9,46.4,169.8,46.4,169.8,46.4z"/>
	<path class="st3" d="M171.4,44.3c-0.3-0.1-0.4-0.4-0.4-0.7s0.1-0.5,0.3-0.7s0.4-0.2,0.6-0.2s0.5,0.1,0.6,0.2
		c0.2,0.2,0.3,0.4,0.3,0.6c0,0.3-0.1,0.5-0.3,0.7l-0.8,1.2h-0.9L171.4,44.3z"/>
	<path class="st3" d="M179.8,50.2c0,0.7-0.3,1.3-0.8,1.7c-0.5,0.4-1.2,0.6-2,0.6c-0.5,0-1.1-0.1-1.7-0.3c-0.6-0.2-1.1-0.5-1.5-0.8
		l0.8-1.2c0.9,0.7,1.7,1,2.5,1c0.4,0,0.6-0.1,0.8-0.2c0.2-0.2,0.3-0.4,0.3-0.6c0-0.4-0.5-0.7-1.5-1c-0.1,0-0.1,0-0.2-0.1
		c-1.5-0.4-2.3-1.1-2.3-2.1c0-0.7,0.3-1.2,0.8-1.7c0.5-0.4,1.2-0.6,2.1-0.6c0.9,0,1.7,0.3,2.4,0.8l-0.6,1.2c-0.6-0.4-1.3-0.6-2-0.6
		c-0.4,0-0.7,0.1-0.9,0.2s-0.4,0.3-0.4,0.6c0,0.2,0.1,0.4,0.4,0.5c0.2,0.1,0.4,0.2,0.7,0.2c0.3,0.1,0.6,0.1,0.8,0.2s0.5,0.2,0.7,0.3
		c0.2,0.1,0.5,0.2,0.7,0.4C179.6,48.9,179.8,49.4,179.8,50.2z"/>
	<path class="st3" d="M128.1,71.3h-1.8l-2.6-7.4h1.6l1.8,5.6l1.8-5.6h1.6l1.8,5.6l1.8-5.6h1.6l-2.6,7.4h-1.8l-1.8-5.1L128.1,71.3z"
		/>
	<path class="st3" d="M143.4,71.3h-1.4v-1c-0.6,0.7-1.4,1.1-2.5,1.1c-0.8,0-1.4-0.2-1.9-0.7s-0.8-1-0.8-1.8s0.3-1.3,0.8-1.6
		c0.5-0.4,1.3-0.5,2.2-0.5h2v-0.3c0-1-0.6-1.5-1.7-1.5c-0.7,0-1.4,0.3-2.2,0.8l-0.7-1c0.9-0.7,1.9-1.1,3.1-1.1
		c0.9,0,1.6,0.2,2.1,0.7s0.8,1.1,0.8,2.1v4.8H143.4z M141.9,68.4v-0.6h-1.8c-1.1,0-1.7,0.4-1.7,1.1c0,0.4,0.1,0.6,0.4,0.8
		c0.3,0.2,0.7,0.3,1.2,0.3s0.9-0.1,1.3-0.4C141.6,69.3,141.9,68.9,141.9,68.4z"/>
	<path class="st3" d="M147.6,65.1v3.8c0,0.4,0.1,0.6,0.3,0.8s0.4,0.3,0.8,0.3s0.7-0.2,1-0.5l0.6,1.1c-0.6,0.5-1.2,0.7-1.8,0.7
		c-0.7,0-1.2-0.2-1.7-0.7s-0.7-1.1-0.7-1.9V65h-0.9v-1.3h0.9v-2.3h1.6v2.3h2V65L147.6,65.1L147.6,65.1z"/>
	<path class="st3" d="M154.8,71.4c-1,0-1.9-0.4-2.7-1.1c-0.7-0.7-1.1-1.6-1.1-2.8s0.4-2.1,1.2-2.8s1.7-1.1,2.8-1.1s2.1,0.4,2.8,1.2
		l-0.9,1.1c-0.6-0.6-1.3-0.8-1.9-0.8s-1.2,0.2-1.7,0.7c-0.5,0.4-0.7,1-0.7,1.7s0.2,1.3,0.7,1.7c0.5,0.5,1.1,0.7,1.8,0.7s1.4-0.3,2-1
		l0.9,1C157.1,70.9,155.9,71.4,154.8,71.4z"/>
	<path class="st3" d="M161.1,67.1v4h-1.6V60.8h1.6v4.3c0.2-0.5,0.6-0.8,1-1.1c0.5-0.3,0.9-0.4,1.5-0.4c0.8,0,1.5,0.3,2,0.8
		s0.8,1.3,0.8,2.2v4.6h-1.6v-4.1c0-1.4-0.6-2.1-1.7-2.1c-0.5,0-1,0.2-1.4,0.5C161.4,65.9,161.1,66.4,161.1,67.1z"/>
	<path class="st3" d="M175.6,68.1h-5.8c0,0.5,0.3,1,0.7,1.3c0.5,0.3,1,0.5,1.6,0.5c0.9,0,1.6-0.3,2.1-0.9l0.9,1
		c-0.8,0.8-1.8,1.2-3.1,1.2c-1,0-1.9-0.3-2.7-1c-0.7-0.7-1.1-1.6-1.1-2.8s0.4-2.1,1.1-2.8c0.7-0.7,1.6-1,2.6-1s1.9,0.3,2.6,0.9
		s1.1,1.5,1.1,2.5L175.6,68.1L175.6,68.1z M169.6,66.9h4.3c0-0.6-0.2-1.1-0.6-1.4c-0.4-0.3-0.9-0.5-1.4-0.5s-1.1,0.2-1.5,0.5
		C169.9,65.9,169.6,66.4,169.6,66.9z"/>
	<path class="st3" d="M182.6,68.9c0,0.7-0.3,1.3-0.8,1.7s-1.2,0.6-2,0.6c-0.5,0-1.1-0.1-1.7-0.3c-0.6-0.2-1.1-0.5-1.5-0.8l0.8-1.2
		c0.9,0.7,1.7,1,2.5,1c0.4,0,0.6-0.1,0.8-0.2c0.2-0.2,0.3-0.4,0.3-0.6c0-0.4-0.5-0.7-1.5-1c-0.1,0-0.1,0-0.2-0.1
		c-1.5-0.4-2.3-1.1-2.3-2.1c0-0.7,0.3-1.2,0.8-1.7c0.5-0.4,1.2-0.6,2.1-0.6c0.9,0,1.7,0.3,2.4,0.8l-0.6,1.2c-0.6-0.4-1.3-0.6-2-0.6
		c-0.4,0-0.7,0.1-0.9,0.2c-0.2,0.1-0.3,0.3-0.3,0.6c0,0.2,0.1,0.4,0.4,0.5c0.2,0.1,0.4,0.2,0.7,0.2c0.3,0.1,0.6,0.1,0.8,0.2
		c0.2,0.1,0.5,0.2,0.7,0.3s0.5,0.2,0.7,0.4C182.3,67.8,182.6,68.3,182.6,68.9z"/>
</g>
</svg>
