<?xml version="1.0" encoding="utf-8"?>
<!-- Generator: Adobe Illustrator 21.0.2, SVG Export Plug-In . SVG Version: 6.00 Build 0)  -->
<svg version="1.1" id="Слой_2" xmlns="http://www.w3.org/2000/svg" xmlns:xlink="http://www.w3.org/1999/xlink" x="0px" y="0px"
	 viewBox="0 0 288 288" style="enable-background:new 0 0 288 288;" xml:space="preserve">
<style type="text/css">
	.st0{display:none;fill:#4B4640;}
	.st1{display:none;fill:#3E4349;}
	.st2{fill:none;stroke:#FDF9F2;stroke-width:2;stroke-miterlimit:10;}
	.st3{fill:none;stroke:#FDF9F2;stroke-miterlimit:10;}
	.st4{fill:none;stroke:#FDF9F2;stroke-width:2;stroke-linecap:round;stroke-miterlimit:10;}
	.st5{fill:#FDF9F2;}
	.st6{font-family:'Montserrat-Regular';}
	.st7{font-size:14px;}
</style>
<rect class="st0" width="288" height="288"/>
<path class="st1" d="M169.8,108.7l-25.1,23.4c0,0-0.1,0-0.1,0c-0.3,0-0.6,0-0.9,0.1l-21-14.1c-1.4-0.9-3.4-0.7-4.4,0.6
	c-1.1,1.2-0.8,3,0.6,4l18.8,12.6c1.1,0.7,2,1.6,2.6,2.8c0.7,1.5,2.4,2.6,4.4,2.6c2.6,0,4.8-1.9,4.8-4.2c0-0.1,0-0.2,0-0.3l25-23.4
	c1.2-1.1,1.2-2.9-0.1-4C173.1,107.6,171,107.6,169.8,108.7z"/>
<path class="st1" d="M144,76.1c-31,0-56,25.1-56,56c0,30.9,25.1,56,56,56s56-25.1,56-56C200,101.2,174.9,76.1,144,76.1z
	 M148.2,179.5v-3.8c0-2.3-1.9-4.2-4.2-4.2c-2.3,0-4.2,1.9-4.2,4.2v3.8c-22.9-2-41.2-20.4-43.2-43.3h3.6c2.3,0,4.2-1.9,4.2-4.2
	c0-2.3-1.9-4.2-4.2-4.2h-3.6c2.1-22.8,20.3-41,43.1-43v3.5c0,2.3,1.9,4.2,4.2,4.2c2.3,0,4.2-1.9,4.2-4.2v-3.5
	c22.8,2,41.1,20.2,43.1,43h-3.6c-2.3,0-4.2,1.9-4.2,4.2c0,2.3,1.9,4.2,4.2,4.2h3.6C189.4,159.2,171.1,177.5,148.2,179.5z"/>
<circle class="st2" cx="113" cy="132.2" r="56"/>
<circle class="st3" cx="113.6" cy="137.9" r="4.9"/>
<polygon class="st4" points="110,135.5 110,135.5 87,118.5 109.9,135.5 "/>
<line class="st4" x1="113" y1="84.3" x2="113" y2="76.1"/>
<line class="st4" x1="65" y1="132.2" x2="57" y2="132.2"/>
<line class="st4" x1="161" y1="132.2" x2="168.8" y2="132.2"/>
<path class="st4" d="M113,180c0,14.2,0,5.2,0,5.2"/>
<text transform="matrix(1 0 0 1 179.25 127.1661)"><tspan x="0" y="0" class="st5 st6 st7">Walter’s </tspan><tspan x="0" y="18.8" class="st5 st6 st7">watches</tspan></text>
<polygon class="st4" points="116.9,135 116.9,135 144.7,107.5 "/>
</svg>
